<svg aria-hidden="true" style="width:0;height:0;position:absolute;overflow:hidden" xmlns="http://www.w3.org/2000/svg"><defs><symbol id="icon-korzuna" viewBox="0 0 32 32"><path d="M12.816 8.112c.552-.768 1.485-1.445 3.184-1.445s2.632.677 3.185 1.445c.601.836.815 1.879.815 2.555V12h-8v-1.333c0-.675.213-1.719.816-2.555zM22.667 12H28a1.335 1.335 0 0 1 .943 2.277c-.25.25-.589.391-.943.391h-.127L26.66 26.801a1.33 1.33 0 0 1-1.326 1.2H6.667a1.33 1.33 0 0 1-1.326-1.2L4.128 14.668h-.127a1.334 1.334 0 0 1 0-2.668h5.333v-1.333c0-1.103.32-2.725 1.317-4.112C11.699 5.1 13.432 4 16 4s4.301 1.1 5.349 2.555c.997 1.387 1.317 3.009 1.317 4.112V12zM12 18.667a1.335 1.335 0 0 0-2.277-.943c-.25.25-.391.589-.391.943v2.667a1.335 1.335 0 0 0 2.277.943c.25-.25.391-.589.391-.943v-2.667zm5.333 0a1.334 1.334 0 0 0-2.668 0v2.667a1.334 1.334 0 0 0 2.668 0v-2.667zm5.334 0a1.334 1.334 0 0 0-2.668 0v2.667a1.334 1.334 0 0 0 2.668 0v-2.667z"/></symbol><symbol id="icon-youtube" viewBox="0 0 32 32"><path d="M24.24 6c-1.36-.08-4.16-.16-8.4-.16h-.56c-4.08 0-6.8.08-8.16.24-1.84.16-3.12.64-3.84 1.28-.64.56-1.12 1.6-1.28 2.96-.08.88-.16 2.72-.16 5.52v.4c0 2.64.08 4.48.24 5.36.24 1.28.64 2.24 1.44 2.8.8.64 2.16 1.04 4.08 1.2 1.36.08 4.16.16 8.4.16h.56c4.08 0 6.8-.08 8.16-.24 1.84-.16 3.12-.64 3.84-1.28.64-.56 1.12-1.6 1.28-2.96.08-.88.16-2.72.16-5.52v-.4c0-2.64-.08-4.48-.24-5.36-.24-1.28-.64-2.24-1.44-2.8-.8-.64-2.16-1.04-4.08-1.2zm-3.12 9.84-8.8 5.28V10.56l8.8 5.28z"/></symbol><symbol id="icon-Facebook" viewBox="0 0 32 32"><path d="M19.52 4.64h.96v3.6h-1.2c-.48 0-.96 0-1.2.24s-.24.48-.24 1.04v1.28h2.64v3.04h-2.64v13.2h-4.08V13.76H11.6v-3.04h2.16V9.68c0-1.76.24-3.04.72-3.6.72-1.04 2.16-1.52 4.32-1.52.24.08.48.08.72.08z"/></symbol><symbol id="icon-insta" viewBox="0 0 32 32"><path d="M30.837 9.882a10.776 10.776 0 0 0-.695-3.669 7.64 7.64 0 0 0-4.367-4.36 10.97 10.97 0 0 0-3.625-.695c-1.595-.071-2.101-.091-6.151-.091s-4.569 0-6.153.091a10.97 10.97 0 0 0-3.624.695 7.635 7.635 0 0 0-4.367 4.36 10.834 10.834 0 0 0-.695 3.618c-.071 1.595-.093 2.1-.093 6.143s0 4.56.093 6.143c.025 1.239.259 2.461.695 3.621a7.64 7.64 0 0 0 4.369 4.358c1.154.45 2.38.705 3.624.745 1.597.071 2.103.093 6.153.093s4.569 0 6.153-.093a10.928 10.928 0 0 0 3.625-.694 7.649 7.649 0 0 0 4.367-4.36c.436-1.159.67-2.381.695-3.621.071-1.593.093-2.098.093-6.143-.003-4.043-.003-4.557-.096-6.141zM15.988 23.62c-4.236 0-7.667-3.426-7.667-7.655s3.431-7.655 7.667-7.655c4.233 0 7.667 3.426 7.667 7.655s-3.435 7.655-7.667 7.655zm7.973-13.808a1.784 1.784 0 1 1 0-3.57 1.784 1.784 0 1 1 0 3.57z"/></symbol><symbol id="icon-burger_menu" viewBox="0 0 32 32"><path d="M2.667 7.993c0-.733.595-1.327 1.327-1.327h10.68a1.326 1.326 0 0 1 0 2.654H3.994a1.326 1.326 0 0 1-1.327-1.327zm0 8.007c0-.733.595-1.327 1.327-1.327h24.013a1.326 1.326 0 0 1 0 2.654H3.994A1.326 1.326 0 0 1 2.667 16zm1.326 6.68a1.326 1.326 0 0 0 0 2.654h16.013a1.326 1.326 0 0 0 0-2.654H3.993z"/></symbol><symbol id="icon-cub_menu" viewBox="0 0 32 32"><path d="M29.082.314h-4.009c-1.237 0-2.24.983-2.24 2.195v3.929c0 1.212 1.003 2.195 2.24 2.195h4.009c1.237 0 2.24-.983 2.24-2.195V2.509c0-1.212-1.003-2.195-2.24-2.195zM6.73 23.04H2.412C1.08 23.04 0 24.023 0 25.235v3.929c0 1.213 1.08 2.195 2.412 2.195H6.73c1.332 0 2.412-.983 2.412-2.195v-3.929c0-1.212-1.08-2.195-2.412-2.195zM6.25 11.582H2.241c-1.237 0-2.24.983-2.24 2.195v3.929c0 1.212 1.003 2.195 2.24 2.195H6.25c1.237 0 2.24-.983 2.24-2.195v-3.929c0-1.212-1.003-2.195-2.24-2.195zM17.766 22.978h-4.009c-1.237 0-2.24.983-2.24 2.195v3.929c0 1.212 1.003 2.195 2.241 2.195h4.009c1.237 0 2.24-.983 2.24-2.195v-3.929c0-1.213-1.003-2.195-2.24-2.195zM6.25.086H2.241c-1.237 0-2.24.983-2.24 2.195V6.21c0 1.212 1.003 2.195 2.24 2.195H6.25c1.237 0 2.24-.983 2.24-2.195V2.281C8.49 1.069 7.487.086 6.25.086zM18.076 11.697h-4.009c-1.237 0-2.24.983-2.24 2.195v3.929c0 1.212 1.003 2.195 2.24 2.195h4.009c1.237 0 2.24-.983 2.24-2.195v-3.929c0-1.212-1.003-2.195-2.24-2.195zM29.333 22.978h-4.01c-1.237 0-2.24.983-2.24 2.195v3.929c0 1.212 1.003 2.195 2.24 2.195h4.009c1.237 0 2.24-.983 2.24-2.195v-3.929c0-1.213-1.003-2.195-2.24-2.195zM17.591.224h-4.009c-1.237 0-2.24.983-2.24 2.195v3.929c0 1.212 1.003 2.195 2.24 2.195h4.009c1.237 0 2.24-.984 2.24-2.196V2.418c0-1.212-1.003-2.195-2.24-2.195zM29.044 11.926h-4.01c-1.237 0-2.24.983-2.24 2.195v3.929c0 1.212 1.003 2.195 2.24 2.195h4.009c1.237 0 2.24-.983 2.24-2.195v-3.929c0-1.212-1.003-2.195-2.24-2.195z"/></symbol><symbol id="icon-icon_close" viewBox="0 0 32 32"><path stroke-linejoin="round" stroke-linecap="round" stroke-width="2.286" d="M24 8 8 24M8 8l16 16"/></symbol><symbol id="icon-strila-btn" viewBox="0 0 30 32"><path d="M29.867 4.588 25.442.163v22.123L3.319.163 0 3.482l22.124 22.123H0l4.425 4.425h25.442V4.588z"/></symbol><symbol id="icon-pick" viewBox="0 0 32 32"><path d="M26.152 1.405a3.2 3.2 0 1 1 5.297 3.591l-17.356 25.6c-1.269 1.872-4.028 1.872-5.297 0L.552 18.436a3.199 3.199 0 1 1 5.297-3.591l5.595 8.253L26.151 1.405z"/></symbol></defs></svg>