<svg aria-hidden="true" style="width:0;height:0;position:absolute;overflow:hidden" xmlns="http://www.w3.org/2000/svg"><defs><symbol id="icon-arrow-down" viewBox="0 0 30 32"><path d="M29.867 4.587 25.442.167V22.29L3.319.165 0 3.482l22.123 22.123H0l4.425 4.427h25.442V4.588z"/></symbol><symbol id="icon-close" viewBox="0 0 32 32"><path stroke-linejoin="round" stroke-linecap="round" stroke-width="2.667" d="M24 8 8 24M8 8l16 16"/></symbol><symbol id="icon-modals-check" viewBox="0 0 32 32"><path d="M26.152 1.404a3.2 3.2 0 0 1 5.289 3.604l.007-.012-17.356 25.6a3.2 3.2 0 0 1-5.289.011l-.007-.011-8.244-12.16a3.2 3.2 0 1 1 5.289-3.604l.007.012 5.596 8.252L26.152 1.404z"/></symbol></defs></svg>