<svg width="131" height="11" viewBox="0 0 131 11" fill="none" xmlns="http://www.w3.org/2000/svg">
<path d="M0.767941 10V0.199999H7.09594V1.642H2.55994V4.386H6.22794V5.8H2.55994V10H0.767941ZM7.91888 10V0.199999H11.5169C12.3009 0.199999 12.9449 0.335333 13.4489 0.606C13.9622 0.867333 14.3449 1.22667 14.5969 1.684C14.8489 2.132 14.9749 2.63133 14.9749 3.182C14.9749 3.77933 14.8162 4.32533 14.4989 4.82C14.1909 5.31467 13.7055 5.674 13.0429 5.898L15.0729 10H13.0149L11.1949 6.136H9.71088V10H7.91888ZM9.71088 4.82H11.4049C12.0022 4.82 12.4409 4.67533 12.7209 4.386C13.0009 4.09667 13.1409 3.714 13.1409 3.238C13.1409 2.77133 13.0009 2.398 12.7209 2.118C12.4502 1.838 12.0069 1.698 11.3909 1.698H9.71088V4.82ZM16.0815 10V0.199999H22.4795V1.642H17.8735V4.33H22.0595V5.73H17.8735V8.558H22.4795V10H16.0815ZM26.9613 10.168C26.2426 10.168 25.608 10.0467 25.0573 9.804C24.5066 9.552 24.0726 9.19733 23.7553 8.74C23.438 8.27333 23.2746 7.70867 23.2653 7.046H25.1553C25.174 7.50333 25.3373 7.89067 25.6453 8.208C25.9626 8.516 26.3966 8.67 26.9473 8.67C27.4233 8.67 27.8013 8.558 28.0813 8.334C28.3613 8.10067 28.5013 7.79267 28.5013 7.41C28.5013 7.00867 28.3753 6.696 28.1233 6.472C27.8806 6.248 27.554 6.066 27.1433 5.926C26.7326 5.786 26.294 5.63667 25.8273 5.478C25.0713 5.21667 24.4926 4.88067 24.0913 4.47C23.6993 4.05933 23.5033 3.51333 23.5033 2.832C23.494 2.25333 23.6293 1.75867 23.9093 1.348C24.1986 0.927999 24.5906 0.605999 25.0853 0.381999C25.58 0.148666 26.1493 0.0319998 26.7933 0.0319998C27.4466 0.0319998 28.0206 0.148666 28.5153 0.381999C29.0193 0.615333 29.4113 0.941999 29.6913 1.362C29.9806 1.782 30.1346 2.28133 30.1533 2.86H28.2353C28.226 2.51467 28.0906 2.21133 27.8293 1.95C27.5773 1.67933 27.2226 1.544 26.7653 1.544C26.3733 1.53467 26.042 1.63267 25.7713 1.838C25.51 2.034 25.3793 2.32333 25.3793 2.706C25.3793 3.03267 25.482 3.294 25.6873 3.49C25.8926 3.67667 26.1726 3.83533 26.5273 3.966C26.882 4.09667 27.288 4.23667 27.7453 4.386C28.2306 4.554 28.674 4.75 29.0753 4.974C29.4766 5.198 29.7986 5.49667 30.0413 5.87C30.284 6.234 30.4053 6.70533 30.4053 7.284C30.4053 7.79733 30.2746 8.27333 30.0133 8.712C29.752 9.15067 29.3646 9.50533 28.8513 9.776C28.338 10.0373 27.708 10.168 26.9613 10.168ZM31.4088 10V0.199999H33.2008V4.274H37.5968V0.199999H39.3888V10H37.5968V5.73H33.2008V10H31.4088ZM43.5095 10V0.199999H45.3015V4.274H49.6975V0.199999H51.4895V10H49.6975V5.73H45.3015V10H43.5095ZM52.2043 10L55.7883 0.199999H57.8043L61.3883 10H59.4843L58.7003 7.732H54.8783L54.0803 10H52.2043ZM55.3683 6.332H58.2103L56.7823 2.258L55.3683 6.332ZM62.0907 10V0.199999H65.6887C66.4727 0.199999 67.1167 0.335333 67.6207 0.606C68.134 0.867333 68.5167 1.22667 68.7687 1.684C69.0207 2.132 69.1467 2.63133 69.1467 3.182C69.1467 3.77933 68.988 4.32533 68.6707 4.82C68.3627 5.31467 67.8773 5.674 67.2147 5.898L69.2447 10H67.1867L65.3667 6.136H63.8827V10H62.0907ZM63.8827 4.82H65.5767C66.174 4.82 66.6127 4.67533 66.8927 4.386C67.1727 4.09667 67.3127 3.714 67.3127 3.238C67.3127 2.77133 67.1727 2.398 66.8927 2.118C66.622 1.838 66.1787 1.698 65.5627 1.698H63.8827V4.82ZM72.7535 10L69.1695 0.199999H71.0875L73.8595 8.166L76.6455 0.199999H78.5355L74.9515 10H72.7535ZM79.1406 10V0.199999H85.5386V1.642H80.9326V4.33H85.1186V5.73H80.9326V8.558H85.5386V10H79.1406ZM90.0203 10.168C89.3017 10.168 88.667 10.0467 88.1163 9.804C87.5657 9.552 87.1317 9.19733 86.8143 8.74C86.497 8.27333 86.3337 7.70867 86.3243 7.046H88.2143C88.233 7.50333 88.3963 7.89067 88.7043 8.208C89.0217 8.516 89.4557 8.67 90.0063 8.67C90.4823 8.67 90.8603 8.558 91.1403 8.334C91.4203 8.10067 91.5603 7.79267 91.5603 7.41C91.5603 7.00867 91.4343 6.696 91.1823 6.472C90.9397 6.248 90.613 6.066 90.2023 5.926C89.7917 5.786 89.353 5.63667 88.8863 5.478C88.1303 5.21667 87.5517 4.88067 87.1503 4.47C86.7583 4.05933 86.5623 3.51333 86.5623 2.832C86.553 2.25333 86.6883 1.75867 86.9683 1.348C87.2577 0.927999 87.6497 0.605999 88.1443 0.381999C88.639 0.148666 89.2083 0.0319998 89.8523 0.0319998C90.5057 0.0319998 91.0797 0.148666 91.5743 0.381999C92.0783 0.615333 92.4703 0.941999 92.7503 1.362C93.0397 1.782 93.1937 2.28133 93.2123 2.86H91.2943C91.285 2.51467 91.1497 2.21133 90.8883 1.95C90.6363 1.67933 90.2817 1.544 89.8243 1.544C89.4323 1.53467 89.101 1.63267 88.8303 1.838C88.569 2.034 88.4383 2.32333 88.4383 2.706C88.4383 3.03267 88.541 3.294 88.7463 3.49C88.9517 3.67667 89.2317 3.83533 89.5863 3.966C89.941 4.09667 90.347 4.23667 90.8043 4.386C91.2897 4.554 91.733 4.75 92.1343 4.974C92.5357 5.198 92.8577 5.49667 93.1003 5.87C93.343 6.234 93.4643 6.70533 93.4643 7.284C93.4643 7.79733 93.3337 8.27333 93.0723 8.712C92.811 9.15067 92.4237 9.50533 91.9103 9.776C91.397 10.0373 90.767 10.168 90.0203 10.168ZM96.6268 10V1.642H93.7708V0.199999H101.289V1.642H98.4188V10H96.6268ZM104.832 10V0.199999H108.766C109.784 0.199999 110.558 0.437999 111.09 0.913999C111.632 1.38067 111.902 1.98267 111.902 2.72C111.902 3.336 111.734 3.83067 111.398 4.204C111.072 4.568 110.67 4.81533 110.194 4.946C110.754 5.058 111.216 5.338 111.58 5.786C111.944 6.22467 112.126 6.738 112.126 7.326C112.126 8.10067 111.846 8.74 111.286 9.244C110.726 9.748 109.933 10 108.906 10H104.832ZM106.624 4.316H108.5C109.004 4.316 109.392 4.19933 109.662 3.966C109.933 3.73267 110.068 3.40133 110.068 2.972C110.068 2.56133 109.933 2.23933 109.662 2.006C109.401 1.76333 109.004 1.642 108.472 1.642H106.624V4.316ZM106.624 8.544H108.626C109.158 8.544 109.569 8.42267 109.858 8.18C110.157 7.928 110.306 7.578 110.306 7.13C110.306 6.67267 110.152 6.31333 109.844 6.052C109.536 5.79067 109.121 5.66 108.598 5.66H106.624V8.544ZM117.696 10.168C116.716 10.168 115.858 9.95333 115.12 9.524C114.392 9.09467 113.818 8.502 113.398 7.746C112.988 6.98067 112.782 6.09867 112.782 5.1C112.782 4.10133 112.988 3.224 113.398 2.468C113.818 1.70267 114.392 1.10533 115.12 0.676C115.858 0.246667 116.716 0.0319998 117.696 0.0319998C118.667 0.0319998 119.521 0.246667 120.258 0.676C120.996 1.10533 121.57 1.70267 121.98 2.468C122.391 3.224 122.596 4.10133 122.596 5.1C122.596 6.09867 122.391 6.98067 121.98 7.746C121.57 8.502 120.996 9.09467 120.258 9.524C119.521 9.95333 118.667 10.168 117.696 10.168ZM117.696 8.558C118.63 8.558 119.372 8.25 119.922 7.634C120.482 7.018 120.762 6.17333 120.762 5.1C120.762 4.02667 120.482 3.182 119.922 2.566C119.372 1.95 118.63 1.642 117.696 1.642C116.763 1.642 116.016 1.95 115.456 2.566C114.896 3.182 114.616 4.02667 114.616 5.1C114.616 6.17333 114.896 7.018 115.456 7.634C116.016 8.25 116.763 8.558 117.696 8.558ZM122.432 10L125.498 5.044L122.39 0.199999H124.448L126.646 3.616L128.662 0.199999H130.678L127.612 5.128L130.748 10H128.69L126.464 6.542L124.448 10H122.432Z" fill="#AE1332"/>
</svg>
